<svg width="72" height="72" viewBox="0 0 72 72" fill="none" xmlns="http://www.w3.org/2000/svg">
<path fill-rule="evenodd" clip-rule="evenodd" d="M16.4433 46.803C33.4614 46.803 47.2574 32.9576 47.2574 15.8783C47.2574 12.7597 46.7974 9.74885 45.9418 6.91045C45.3413 4.91843 47.1214 2.87275 49.0149 3.73488C60.8016 9.10141 68.9995 21.0151 68.9995 34.8504C68.9995 53.711 53.7646 69.0006 34.9714 69.0006C20.9404 69.0006 8.89282 60.478 3.68806 48.3097C2.86937 46.3956 4.95741 44.6597 6.93716 45.3034C9.93124 46.277 13.126 46.803 16.4433 46.803Z" fill="url(#paint0_linear_2200_198073)"/>
<path fill-rule="evenodd" clip-rule="evenodd" d="M69 15C70.6569 15 72 16.3431 72 18C72 19.6569 70.6569 21 69 21H36C34.3431 21 33 19.6569 33 18C33 16.3431 34.3431 15 36 15H69ZM3 39C1.34315 39 0 40.3431 0 42C0 43.6569 1.34315 45 3 45H36C37.6569 45 39 43.6569 39 42C39 40.3431 37.6569 39 36 39H3ZM45 42C45 40.3431 46.3431 39 48 39H57C58.6569 39 60 40.3431 60 42C60 43.6569 58.6569 45 57 45H48C46.3431 45 45 43.6569 45 42ZM24 15C25.6569 15 27 16.3431 27 18C27 19.6569 25.6569 21 24 21H15C13.3431 21 12 19.6569 12 18C12 16.3431 13.3431 15 15 15H24ZM0 54C0 52.3431 1.34315 51 3 51H57C58.6569 51 60 52.3431 60 54C60 55.6569 58.6569 57 57 57H3C1.34315 57 0 55.6569 0 54ZM15 27C13.3431 27 12 28.3431 12 30C12 31.6569 13.3431 33 15 33H69C70.6569 33 72 31.6569 72 30C72 28.3431 70.6569 27 69 27H15Z" fill="url(#paint1_linear_2200_198073)"/>
<defs>
<linearGradient id="paint0_linear_2200_198073" x1="63.9156" y1="66.2449" x2="66.6855" y2="1.24763" gradientUnits="userSpaceOnUse">
<stop stop-color="#EE7F18"/>
<stop offset="0.56298" stop-color="#EEB82E"/>
<stop offset="1" stop-color="#FEB649" stop-opacity="0.78"/>
</linearGradient>
<linearGradient id="paint1_linear_2200_198073" x1="43.0435" y1="57" x2="50.6004" y2="17.4094" gradientUnits="userSpaceOnUse">
<stop stop-color="#DAC48C"/>
<stop offset="1" stop-color="#FFE17D"/>
</linearGradient>
</defs>
</svg>
